<svg xmlns="http://www.w3.org/2000/svg" width="720" height="540" viewBox="0 0 720 540" role="img" aria-labelledby="title desc">
  <title id="title">Defensive crossed-arms pose</title>
  <desc id="desc">A standing mannequin closes the chest with crossed arms, square stance, and high-contrast side light.</desc>
  <rect width="720" height="540" fill="#f6f3f8"/>
  <rect x="0" y="0" width="270" height="540" fill="#e4dfea"/>
  <circle cx="360" cy="117" r="39" fill="none" stroke="#222" stroke-width="10"/>
  <path d="M360 157 L360 306" fill="none" stroke="#222" stroke-width="13" stroke-linecap="round"/>
  <path d="M315 203 C338 226 376 250 420 266" fill="none" stroke="#222" stroke-width="12" stroke-linecap="round"/>
  <path d="M421 203 C392 226 354 248 306 266" fill="none" stroke="#222" stroke-width="12" stroke-linecap="round"/>
  <circle cx="306" cy="266" r="12" fill="#222"/>
  <circle cx="420" cy="266" r="12" fill="#222"/>
  <path d="M360 306 C330 351 310 392 293 447" fill="none" stroke="#222" stroke-width="13" stroke-linecap="round"/>
  <path d="M360 306 C391 351 411 392 428 447" fill="none" stroke="#222" stroke-width="13" stroke-linecap="round"/>
  <path d="M270 448 L312 448" fill="none" stroke="#222" stroke-width="10" stroke-linecap="round"/>
  <path d="M410 448 L452 448" fill="none" stroke="#222" stroke-width="10" stroke-linecap="round"/>
  <path d="M226 70 L226 474" stroke="#7b4e9a" stroke-width="14" stroke-linecap="round"/>
  <path d="M248 70 L248 474" stroke="#7b4e9a" stroke-width="4" stroke-linecap="round"/>
  <path d="M489 154 C530 214 540 293 514 365" fill="none" stroke="#c9b6d4" stroke-width="16" stroke-linecap="round"/>
</svg>
